<?xml version="1.0" encoding="UTF-8"?>
<svg version="1.1" xmlns="http://www.w3.org/2000/svg" width="32" height="32">
<path d="M0 0 C0.886875 -0.00257812 1.77375 -0.00515625 2.6875 -0.0078125 C4.0796875 0.00378906 4.0796875 0.00378906 5.5 0.015625 C6.8921875 0.00402344 6.8921875 0.00402344 8.3125 -0.0078125 C9.6428125 -0.00394531 9.6428125 -0.00394531 11 0 C11.8146875 0.00225586 12.629375 0.00451172 13.46875 0.00683594 C15.5 0.265625 15.5 0.265625 17.5 2.265625 C17.625 5.390625 17.625 5.390625 17.5 8.265625 C18.82 8.265625 20.14 8.265625 21.5 8.265625 C21.5 10.905625 21.5 13.545625 21.5 16.265625 C20.18 16.265625 18.86 16.265625 17.5 16.265625 C17.54125 17.214375 17.5825 18.163125 17.625 19.140625 C17.5 22.265625 17.5 22.265625 15.5 24.265625 C13.46875 24.52441406 13.46875 24.52441406 11 24.53125 C10.113125 24.53382812 9.22625 24.53640625 8.3125 24.5390625 C7.384375 24.53132813 6.45625 24.52359375 5.5 24.515625 C4.1078125 24.52722656 4.1078125 24.52722656 2.6875 24.5390625 C1.3571875 24.53519531 1.3571875 24.53519531 0 24.53125 C-0.8146875 24.52899414 -1.629375 24.52673828 -2.46875 24.52441406 C-4.5 24.265625 -4.5 24.265625 -6.5 22.265625 C-6.625 19.140625 -6.625 19.140625 -6.5 16.265625 C-7.82 16.265625 -9.14 16.265625 -10.5 16.265625 C-10.5 13.625625 -10.5 10.985625 -10.5 8.265625 C-9.18 8.265625 -7.86 8.265625 -6.5 8.265625 C-6.561875 6.8425 -6.561875 6.8425 -6.625 5.390625 C-6.42520037 0.39563424 -4.49464648 0.01244562 0 0 Z M-8.5 10.265625 C-8.5 11.585625 -8.5 12.905625 -8.5 14.265625 C-7.84 14.265625 -7.18 14.265625 -6.5 14.265625 C-6.5 12.945625 -6.5 11.625625 -6.5 10.265625 C-7.16 10.265625 -7.82 10.265625 -8.5 10.265625 Z M17.5 10.265625 C17.5 11.585625 17.5 12.905625 17.5 14.265625 C18.16 14.265625 18.82 14.265625 19.5 14.265625 C19.5 12.945625 19.5 11.625625 19.5 10.265625 C18.84 10.265625 18.18 10.265625 17.5 10.265625 Z " fill="#FED57E" transform="translate(10.5,3.734375)"/>
<path d="M0 0 C3 0.125 3 0.125 4 1.125 C4.125 4.125 4.125 4.125 4 7.125 C3 8.125 3 8.125 0 8.25 C-3 8.125 -3 8.125 -4 7.125 C-4.125 4.125 -4.125 4.125 -4 1.125 C-3 0.125 -3 0.125 0 0 Z " fill="#FC5A2E" transform="translate(16,11.875)"/>
<path d="M0 0 C2.64 0 5.28 0 8 0 C8.04241723 2.33294775 8.04092937 4.66702567 8 7 C7 8 7 8 3.4375 8.0625 C2.303125 8.041875 1.16875 8.02125 0 8 C0 5.36 0 2.72 0 0 Z M2 2 C2 3.32 2 4.64 2 6 C2.66 6 3.32 6 4 6 C4 4.68 4 3.36 4 2 C3.34 2 2.68 2 2 2 Z " fill="#FC7C44" transform="translate(0,12)"/>
<path d="M0 0 C1.134375 0.020625 2.26875 0.04125 3.4375 0.0625 C3.4375 2.7025 3.4375 5.3425 3.4375 8.0625 C1.10455225 8.10491723 -1.22952567 8.10342937 -3.5625 8.0625 C-4.5625 7.0625 -4.5625 7.0625 -4.6875 4.0625 C-4.50687014 -0.27261656 -4.44520527 0.07798606 0 0 Z M-0.5625 2.0625 C-0.5625 3.3825 -0.5625 4.7025 -0.5625 6.0625 C0.0975 6.0625 0.7575 6.0625 1.4375 6.0625 C1.4375 4.7425 1.4375 3.4225 1.4375 2.0625 C0.7775 2.0625 0.1175 2.0625 -0.5625 2.0625 Z " fill="#FB5B2E" transform="translate(28.5625,11.9375)"/>
<path d="M0 0 C0.66 0 1.32 0 2 0 C2 1.98 2 3.96 2 6 C1.01 6 0.02 6 -1 6 C-1.042721 4.33388095 -1.04063832 2.66617115 -1 1 C-0.67 0.67 -0.34 0.34 0 0 Z " fill="#FEC372" transform="translate(26,13)"/>
</svg>
