<?xml version="1.0" encoding="UTF-8"?>
<svg version="1.1" xmlns="http://www.w3.org/2000/svg" width="32" height="32">
<path d="M0 0 C0 7.26 0 14.52 0 22 C-10.56 22 -21.12 22 -32 22 C-32 16.06 -32 10.12 -32 4 C-27.98020032 3.32652571 -23.95935254 2.66100408 -19.9375 2 C-18.80376953 1.80921875 -17.67003906 1.6184375 -16.50195312 1.421875 C-15.39658203 1.24140625 -14.29121094 1.0609375 -13.15234375 0.875 C-11.6362854 0.62363281 -11.6362854 0.62363281 -10.08959961 0.3671875 C-7 0 -7 0 0 0 Z " fill="#62B454" transform="translate(32,5)"/>
<path d="M0 0 C0 7.26 0 14.52 0 22 C-4.62 22 -9.24 22 -14 22 C-14 21.34 -14 20.68 -14 20 C-13.34 19.62875 -12.68 19.2575 -12 18.875 C-9.84457311 17.22974509 -9.84457311 17.22974509 -9.6640625 15.09765625 C-9.57894184 12.63685117 -9.57894184 12.63685117 -10 9 C-12.84614024 6.15385976 -15.80369142 6.54420924 -19.625 6.375 C-20.33140625 6.33632812 -21.0378125 6.29765625 -21.765625 6.2578125 C-23.50998524 6.16352276 -25.25495691 6.08067109 -27 6 C-27.33 5.01 -27.66 4.02 -28 3 C-24.64703509 2.49171557 -21.29246657 1.99488543 -17.9375 1.5 C-16.52307617 1.28537109 -16.52307617 1.28537109 -15.08007812 1.06640625 C-14.15517578 0.93105469 -13.23027344 0.79570313 -12.27734375 0.65625 C-11.43421631 0.53056641 -10.59108887 0.40488281 -9.72241211 0.27539062 C-6.49676977 -0.05090518 -3.24210386 0 0 0 Z " fill="#69BB56" transform="translate(32,5)"/>
<path d="M0 0 C2 1 2 1 3 3 C3.39302445 6.09506752 3.62908496 8.04448766 3 11 C0.875 13.5625 0.875 13.5625 -2 15 C-5.15548924 14.93689022 -7.13769198 14.48864121 -9.875 12.9375 C-11.71933749 9.76114098 -11.52080575 6.57123945 -11 3 C-8.88635164 -1.22729673 -4.14812414 -0.60493477 0 0 Z " fill="#FAAF43" transform="translate(20,11)"/>
<path d="M0 0 C1.27875 -0.061875 2.5575 -0.12375 3.875 -0.1875 C4.95394531 -0.23970703 4.95394531 -0.23970703 6.0546875 -0.29296875 C6.69664063 -0.19628906 7.33859375 -0.09960938 8 0 C10.13586678 3.20380017 10.23132175 4.01939967 10.125 7.6875 C10.10695313 8.49574219 10.08890625 9.30398437 10.0703125 10.13671875 C10.03550781 11.05904297 10.03550781 11.05904297 10 12 C9.34 12 8.68 12 8 12 C8 12.66 8 13.32 8 14 C5.36 14 2.72 14 0 14 C0.66 13.01 1.32 12.02 2 11 C2.31478577 9.04785375 2.31478577 9.04785375 2.25 7 C2.25773437 5.9790625 2.25773437 5.9790625 2.265625 4.9375 C2.09917603 2.67583993 2.09917603 2.67583993 0 0 Z " fill="#5CA849" transform="translate(20,11)"/>
<path d="M0 0 C0 1.32 0 2.64 0 4 C-9.24 4 -18.48 4 -28 4 C-28 3.67 -28 3.34 -28 3 C-24.64703509 2.49171557 -21.29246657 1.99488543 -17.9375 1.5 C-16.52307617 1.28537109 -16.52307617 1.28537109 -15.08007812 1.06640625 C-9.99267758 0.32190861 -5.1412006 -0.17113566 0 0 Z " fill="#56B34C" transform="translate(32,5)"/>
<path d="M0 0 C1.9453125 -0.29296875 1.9453125 -0.29296875 4.125 -0.1875 C5.40375 -0.125625 6.6825 -0.06375 8 0 C6.35 2.64 4.7 5.28 3 8 C2.67 7.34 2.34 6.68 2 6 C1.01 6 0.02 6 -1 6 C-1 7.65 -1 9.3 -1 11 C-1.33 11 -1.66 11 -2 11 C-2.25 3.375 -2.25 3.375 0 0 Z " fill="#53A64A" transform="translate(4,11)"/>
<path d="M0 0 C0.33 0 0.66 0 1 0 C1.66 2.64 2.32 5.28 3 8 C1.02 8 -0.96 8 -3 8 C-3 7.34 -3 6.68 -3 6 C-3.66 6 -4.32 6 -5 6 C-5 4.35 -5 2.7 -5 1 C-3.68 1.33 -2.36 1.66 -1 2 C-0.67 1.34 -0.34 0.68 0 0 Z " fill="#6DB55C" transform="translate(8,16)"/>
<path d="M0 0 C2.475 0.495 2.475 0.495 5 1 C5.33 2.65 5.66 4.3 6 6 C4.35 6 2.7 6 1 6 C0.67 4.02 0.34 2.04 0 0 Z " fill="#68BB64" transform="translate(23,13)"/>
<path d="M0 0 C1.27875 -0.061875 2.5575 -0.12375 3.875 -0.1875 C4.95394531 -0.23970703 4.95394531 -0.23970703 6.0546875 -0.29296875 C6.69664063 -0.19628906 7.33859375 -0.09960938 8 0 C10.13586678 3.20380017 10.23132175 4.01939967 10.125 7.6875 C10.10695313 8.49574219 10.08890625 9.30398437 10.0703125 10.13671875 C10.03550781 11.05904297 10.03550781 11.05904297 10 12 C9.34 11.67 8.68 11.34 8 11 C8 8.69 8 6.38 8 4 C7.236875 3.896875 6.47375 3.79375 5.6875 3.6875 C2.82940576 2.95635961 1.84257115 2.23048087 0 0 Z " fill="#4D9A46" transform="translate(20,11)"/>
<path d="M0 0 C1.32 0 2.64 0 4 0 C3.67 3.96 3.34 7.92 3 12 C2.67 12 2.34 12 2 12 C1.855625 10.7625 1.71125 9.525 1.5625 8.25 C1.21311498 5.43495501 0.79620634 2.7298503 0 0 Z " fill="#60B253" transform="translate(28,10)"/>
</svg>
